<svg xmlns="http://www.w3.org/2000/svg" viewBox="0 0 317.59 245.53"><defs><style>.a,.b{fill:none;stroke-linecap:round;stroke-linejoin:round;}.a{stroke:#fff;}.b{stroke:#bebebe;}</style></defs><title>Pittsburgh_map</title><line class="a" x1="126.21" y1="69.63" x2="168.82" y2="75.54"/><polyline class="a" points="0.5 102.33 1.53 102.45 29.45 101.19"/><polyline class="a" points="0.5 65.41 6.86 66.36 35.6 68.35"/><polyline class="a" points="0.5 11.97 45.77 20.6 122.68 35.01 139.28 38.37 180.07 45.59 234.57 55.33 283.67 62.94"/><polyline class="a" points="0.5 83.97 1.38 84.13 5.92 83.94 32.76 82.08"/><polyline class="a" points="0.5 157.03 21.48 162.58 46.49 168.86 76.3 176.3"/><polyline class="a" points="26 118.76 1.53 120.33 0.5 120.38"/><polyline class="a" points="0.5 47.13 38.65 54.24 123.21 69.18"/><polyline class="a" points="0.5 50.55 38.05 57.55 121.74 72.33"/><polyline class="a" points="212.15 158.86 191.09 217.27 182.28 241.44"/><polyline class="a" points="281.41 154.98 273.38 174.05 245.15 234.09 241.82 241.44"/><polyline class="a" points="250.66 141.19 242.75 158.59 237.85 169.12 212.67 224.5 204.73 241.44"/><polyline class="a" points="13.46 241.44 21.48 162.58 26 118.76"/><polyline class="a" points="105.13 113.35 96.4 133.38 76.3 176.3 73.84 181.8 70.02 190.23 62.65 241.44"/><polyline class="a" points="115.03 51.97 122.68 35.01 129.93 17.42 138.21 0.5"/><polyline class="a" points="197.39 118.16 190.79 140.35 188.26 148.88 186.12 155.7 177.93 183.09 169.52 210.79 160.66 241.44"/><polyline class="a" points="106.09 114.75 97.72 133.96 97.72 133.97 97.71 133.99 77.61 176.9 75.16 182.39 71.42 190.64 64.11 241.44"/><polyline class="a" points="102.83 115.01 95.08 132.78 74.98 175.7 72.53 181.2 68.62 189.82 61.19 241.44"/><polyline class="a" points="168.82 75.54 178.69 45.18 183.41 27.58 190.28 9.35 194.15 0.5"/><polyline class="a" points="171.72 75.96 271.93 90.48 272.17 90.52 272.39 90.62 317.09 111.45"/><polyline class="a" points="170.66 79.2 271.2 93.77 317.09 115.15"/><polyline class="a" points="171.19 77.58 271.68 92.14 317.09 113.3"/><polyline class="a" points="159.84 109.72 164.55 93.16 169.74 77.37 180.07 45.59 184.78 28.02 191.62 9.89 195.73 0.5"/><polyline class="a" points="250.66 141.19 251.26 137.31 258.3 119.92 271.68 92.14 280.17 73.83 283.67 62.94 291.15 33.98 297.51 5.23 297.32 0.5"/><polyline class="a" points="26 118.76 29.45 101.19 32.76 82.08 35.6 68.35 38.35 55.89 42.32 38.8 45.77 20.6 50.7 2.46 51.1 0.5"/><polyline class="a" points="157.56 0.5 156.61 2.72 139.28 38.37 131.89 55.01 123.91 71.01 115.81 89.14 110.72 101 105.13 113.35"/><polyline class="a" points="161.76 108.23 165.93 93.58 171.11 77.82 181.45 46.04 181.46 46 181.47 45.97 186.16 28.46 192.96 10.44 197.31 0.5"/><polyline class="a" points="159.13 0.5 157.92 3.32 140.59 38.98 133.2 55.63 126.21 69.63"/><polyline class="a" points="155.99 0.5 155.29 2.12 137.97 37.77 130.59 54.4 123.21 69.18"/><polyline class="a" points="0.5 48.84 38.35 55.89 123.91 71.01 169.74 77.37 271.68 92.14 317.09 113.3"/><line class="a" x1="163.27" y1="92.42" x2="167.75" y2="78.79"/><line class="a" x1="205.48" y1="115.93" x2="208.57" y2="108.64"/><polyline class="a" points="208.57 108.64 209.52 108.14 211.72 106.67 236.05 110.86 239.09 111.91 258.3 119.92"/><line class="a" x1="203.96" y1="120.71" x2="205.48" y2="115.93"/><line class="a" x1="257.11" y1="165.72" x2="265.72" y2="147.95"/><polyline class="a" points="110.72 101 99.05 98.75 87.18 97.57 64.43 98.75"/><line class="a" x1="165.13" y1="132.02" x2="190.79" y2="140.35"/><line class="a" x1="184.78" y1="28.02" x2="209.69" y2="31.71"/><polyline class="a" points="242.75 158.59 257.11 165.72 273.38 174.05 291.29 182.74 293.2 183.7 306.45 190.31"/><polyline class="a" points="115.81 89.14 120.52 87.27 164.55 93.16"/><polyline class="a" points="146.35 133.88 132.58 130.03 118.8 131.5 96.4 133.38"/><polyline class="a" points="237.85 169.12 212.15 158.86 188.26 148.88"/><polyline class="a" points="63.45 80.8 77.47 81.59 115.81 89.14"/><line class="a" x1="151.72" y1="175.04" x2="177.93" y2="183.09"/><polyline class="a" points="127.62 198.76 146.35 133.88 153.24 111.07"/><line class="a" x1="118.79" y1="131.5" x2="92.97" y2="188.07"/><line class="a" x1="258.3" y1="119.92" x2="283.06" y2="130.12"/><polyline class="a" points="73.84 181.8 92.97 188.07 117.89 196.25"/><line class="a" x1="160.52" y1="147.93" x2="186.12" y2="155.7"/><polyline class="a" points="46.49 168.86 42.37 207.58 37.28 245.03"/><polyline class="a" points="105.13 113.35 79.35 115.73 26 118.76"/><line class="a" x1="153.24" y1="111.07" x2="159.84" y2="109.72"/><line class="a" x1="153.24" y1="111.07" x2="105.13" y2="113.35"/><polyline class="a" points="159.84 109.72 176.02 109.33 197.39 118.16 203.96 120.71 250.66 141.19 265.72 147.95 281.41 154.98 302.98 164.82 315.3 170.67"/><polyline class="a" points="110.72 101 99.05 98.75 87.18 97.57 64.43 98.75"/><polyline class="a" points="315.92 169.37 303.59 163.51 282.01 153.67 266.31 146.63 251.24 139.87 204.54 119.39 204.51 119.37 204.48 119.36 197.93 116.82 176.29 107.89 161.76 108.23"/><polyline class="a" points="126.23 198.36 144.96 133.47 151.26 112.61"/><polyline class="a" points="129.01 199.16 147.73 134.28 154.37 112.31"/><polyline class="a" points="104.16 111.99 79.24 114.29 25.92 117.32"/><polyline class="a" points="158.69 108.48 153.06 109.63 107.41 111.8"/><line class="a" x1="151.26" y1="112.61" x2="106.09" y2="114.75"/><polyline class="a" points="102.83 115.01 79.45 117.17 26.08 120.2"/><line class="a" x1="158.69" y1="108.49" x2="162.95" y2="93.51"/><polyline class="a" points="63.45 80.8 77.47 81.59 107.34 87.47"/><polyline class="a" points="63.42 81.36 77.4 82.14 114.14 89.38"/><polyline class="a" points="117.41 89.11 120.59 87.84 162.94 93.51"/><polyline class="a" points="63.48 80.25 77.54 81.03 114.59 88.33"/><polyline class="a" points="118.06 87.64 120.45 86.7 163.27 92.42"/><polyline class="a" points="117.41 89.11 117.13 89.71 112.04 101.57 112.04 101.58 112.03 101.59 107.41 111.8"/><polyline class="a" points="114.14 89.38 109.39 100.42 104.16 111.99"/><polyline class="a" points="314.68 171.98 302.37 166.13 280.82 156.3 265.13 149.27 250.07 142.51 203.41 122.04 196.86 119.5 175.75 110.79 160 111.17 154.37 112.31"/><line class="a" x1="124.69" y1="72.81" x2="118.06" y2="87.64"/><line class="a" x1="121.74" y1="72.33" x2="114.59" y2="88.33"/><line class="a" x1="166.85" y1="76.97" x2="168.29" y2="77.17"/><line class="a" x1="124.69" y1="72.81" x2="167.75" y2="78.79"/><polyline class="a" points="0.5 30.83 42.32 38.8 115.03 51.97 131.89 55.01"/><rect class="b" x="221.95" y="234.27" width="2.92" height="6.11" transform="translate(-96.61 -119.01) rotate(-3.58)"/><rect class="b" x="221.95" y="234.27" width="2.92" height="6.11" transform="translate(-96.61 -119.01) rotate(-3.58)"/><rect class="b" x="221.95" y="234.27" width="2.92" height="6.11" transform="translate(-96.61 -119.01) rotate(-3.58)"/><polygon class="b" points="161.46 126.65 163.37 120.34 163.56 119.7 160.84 118.88 159.88 122.05 159.47 121.92 158.94 123.67 159.29 123.78 158.68 125.81 161.46 126.65"/><polygon class="b" points="161.46 126.65 163.37 120.34 163.56 119.7 160.84 118.88 159.88 122.05 159.47 121.92 158.94 123.67 159.29 123.78 158.68 125.81 161.46 126.65"/><polygon class="b" points="161.46 126.65 163.37 120.34 163.56 119.7 160.84 118.88 159.88 122.05 159.47 121.92 158.94 123.67 159.29 123.78 158.68 125.81 161.46 126.65"/><polygon class="b" points="153.88 124.48 155.26 124.89 155.03 125.67 157.69 126.47 159.89 119.15 155.85 117.93 153.88 124.48"/><polygon class="b" points="153.88 124.48 155.26 124.89 155.03 125.67 157.69 126.47 159.89 119.15 155.85 117.93 153.88 124.48"/><polygon class="b" points="153.88 124.48 155.26 124.89 155.03 125.67 157.69 126.47 159.89 119.15 155.85 117.93 153.88 124.48"/><polygon class="b" points="164.52 127.58 165.14 125.55 165.52 125.66 166.21 123.37 165.77 123.23 166.47 120.92 165.16 120.52 165.35 119.88 163.85 119.43 163.56 120.4 163.37 120.34 161.46 126.65 164.52 127.58"/><polygon class="b" points="164.52 127.58 165.14 125.55 165.52 125.66 166.21 123.37 165.77 123.23 166.47 120.92 165.16 120.52 165.35 119.88 163.85 119.43 163.56 120.4 163.37 120.34 161.46 126.65 164.52 127.58"/><polygon class="b" points="164.52 127.58 165.14 125.55 165.52 125.66 166.21 123.37 165.77 123.23 166.47 120.92 165.16 120.52 165.35 119.88 163.85 119.43 163.56 120.4 163.37 120.34 161.46 126.65 164.52 127.58"/><polygon class="b" points="112.61 125.55 117.83 125.11 117.54 121.69 123.65 121.19 123.93 124.6 128.48 124.22 127.8 115.88 111.92 117.2 112.61 125.55"/><polygon class="b" points="112.61 125.55 117.83 125.11 117.54 121.69 123.65 121.19 123.93 124.6 128.48 124.22 127.8 115.88 111.92 117.2 112.61 125.55"/><polygon class="b" points="112.61 125.55 117.83 125.11 117.54 121.69 123.65 121.19 123.93 124.6 128.48 124.22 127.8 115.88 111.92 117.2 112.61 125.55"/><polygon class="b" points="142.91 114.91 140.22 124.78 144.19 126.14 144.64 122.99 146.49 123.87 148.59 115.71 147.68 114.71 142.91 114.91"/><polygon class="b" points="142.91 114.91 140.22 124.78 144.19 126.14 144.64 122.99 146.49 123.87 148.59 115.71 147.68 114.71 142.91 114.91"/><polygon class="b" points="142.91 114.91 140.22 124.78 144.19 126.14 144.64 122.99 146.49 123.87 148.59 115.71 147.68 114.71 142.91 114.91"/><rect class="b" x="228.42" y="226.57" width="1.45" height="2.29" transform="translate(-96.12 -118.53) rotate(-3.62)"/><rect class="b" x="228.42" y="226.57" width="1.45" height="2.29" transform="translate(-96.12 -118.53) rotate(-3.62)"/><rect class="b" x="228.42" y="226.57" width="1.45" height="2.29" transform="translate(-96.12 -118.53) rotate(-3.62)"/><rect class="b" x="236.95" y="225.34" width="3.12" height="5.85" transform="translate(-100.79 301.93) rotate(-82.6)"/><rect class="b" x="236.95" y="225.34" width="3.12" height="5.85" transform="translate(-100.79 301.93) rotate(-82.6)"/><rect class="b" x="236.95" y="225.34" width="3.12" height="5.85" transform="translate(-100.79 301.93) rotate(-82.6)"/><polygon class="b" points="142.08 96.29 145.89 96.03 145.6 91.87 141.76 91.67 142.08 96.29"/><polygon class="b" points="142.08 96.29 145.89 96.03 145.6 91.87 141.76 91.67 142.08 96.29"/><polygon class="b" points="142.08 96.29 145.89 96.03 145.6 91.87 141.76 91.67 142.08 96.29"/><rect class="b" x="221.79" y="228.08" width="2.17" height="3.92" transform="translate(-95.57 -119.69) rotate(-3.43)"/><rect class="b" x="221.79" y="228.08" width="2.17" height="3.92" transform="translate(-95.57 -119.69) rotate(-3.43)"/><rect class="b" x="221.79" y="228.08" width="2.17" height="3.92" transform="translate(-95.57 -119.69) rotate(-3.43)"/><polygon class="b" points="146.71 106.77 149.72 106.51 149.68 106.1 151.66 105.93 151.7 106.36 157.14 105.88 159.41 99.03 159.27 97.38 155.86 97.68 156.22 101.85 153.82 102.06 153.41 97.28 151.52 97.45 152.04 103.44 150.8 103.55 150.22 96.89 147.72 97.11 147.95 99.84 146.71 99.95 146.95 102.71 146.37 102.76 146.71 106.77"/><polygon class="b" points="146.71 106.77 149.72 106.51 149.68 106.1 151.66 105.93 151.7 106.36 157.14 105.88 159.41 99.03 159.27 97.38 155.86 97.68 156.22 101.85 153.82 102.06 153.41 97.28 151.52 97.45 152.04 103.44 150.8 103.55 150.22 96.89 147.72 97.11 147.95 99.84 146.71 99.95 146.95 102.71 146.37 102.76 146.71 106.77"/><polygon class="b" points="146.71 106.77 149.72 106.51 149.68 106.1 151.66 105.93 151.7 106.36 157.14 105.88 159.41 99.03 159.27 97.38 155.86 97.68 156.22 101.85 153.82 102.06 153.41 97.28 151.52 97.45 152.04 103.44 150.8 103.55 150.22 96.89 147.72 97.11 147.95 99.84 146.71 99.95 146.95 102.71 146.37 102.76 146.71 106.77"/><polygon class="b" points="109.75 109.09 122.64 108.52 122.23 99.47 120.42 99.54 118.9 98.76 119.76 97.07 116.69 95.5 109.75 109.09"/><polygon class="b" points="109.75 109.09 122.64 108.52 122.23 99.47 120.42 99.54 118.9 98.76 119.76 97.07 116.69 95.5 109.75 109.09"/><polygon class="b" points="109.75 109.09 122.64 108.52 122.23 99.47 120.42 99.54 118.9 98.76 119.76 97.07 116.69 95.5 109.75 109.09"/><rect class="b" x="204.71" y="223.86" width="7.82" height="15.53" transform="translate(-96.18 -120.04) rotate(-3.56)"/><rect class="b" x="204.71" y="223.86" width="7.82" height="15.53" transform="translate(-96.18 -120.04) rotate(-3.56)"/><rect class="b" x="204.71" y="223.86" width="7.82" height="15.53" transform="translate(-96.18 -120.04) rotate(-3.56)"/><polygon class="b" points="245.22 124.27 243.68 124.25 243.73 120.53 243.74 119.35 244.61 117.34 245.7 117.81 246.1 116.9 253.7 120.19 252.55 122.85 253.03 123.06 251.48 126.63 250.45 126.19 247.21 133.65 244.03 132.28 243.44 133.62 240.04 132.15 242.25 127.04 242.97 127.35 243.84 125.35 244.61 125.69 245.22 124.27"/><polygon class="b" points="105.41 62.68 102.79 62.19 103.93 56.01 105.49 56.3 105.21 57.77 106.28 57.97 105.41 62.68"/><rect class="b" x="213.47" y="276.78" width="3.7" height="9.08" transform="translate(-203.36 258.75) rotate(-70.81)"/><polygon class="b" points="279.77 90.83 276.9 89.5 279.52 83.77 282.4 85.09 279.77 90.83"/><rect class="b" x="135.72" y="310.08" width="3.07" height="2.82" transform="translate(-265.47 292.66) rotate(-85.9)"/><rect class="b" x="288.27" y="166.73" width="2.12" height="1.6" transform="translate(-4.99 292.52) rotate(-80.69)"/><polygon class="b" points="258 53.91 255.35 53.36 256.78 46.39 259.22 46.89 258 53.91"/><polygon class="b" points="110.8 63.93 108.75 63.56 110.12 56.14 112.2 56.51 110.8 63.93"/><polygon class="b" points="203.98 43.26 199.38 42.51 200.46 35.79 203.15 36.23 203.24 35.7 205.15 36.01 203.98 43.26"/><polygon class="b" points="196.41 134.21 197.16 132.69 197.91 131.17 195.94 130.21 198.14 125.74 204.22 128.73 201.94 133.38 200.8 132.82 199.39 135.68 196.41 134.21"/><rect class="b" x="242.06" y="266.5" width="3.6" height="2.94" transform="translate(-176.25 265.31) rotate(-68.85)"/><polygon class="b" points="63.96 186.04 58.23 185.47 58.58 181.89 64.3 182.57 63.96 186.04"/><polygon class="b" points="146.71 106.77 146.37 102.76 146.95 102.71 146.71 99.95 147.95 99.84 147.72 97.11 150.22 96.89 150.8 103.55 152.04 103.44 151.52 97.45 153.41 97.28 153.82 102.06 156.22 101.85 155.86 97.68 159.27 97.38 159.41 99.03 157.14 105.88 151.7 106.36 151.66 105.93 149.68 106.1 149.72 106.51 146.71 106.77"/><polygon class="b" points="222.81 61.37 220.15 60.94 220.96 54.88 223.67 55.32 222.81 61.37"/><polygon class="b" points="239.39 63.94 233.49 62.98 234.33 57.05 240.34 58.02 239.39 63.94"/><rect class="b" x="313.42" y="289.38" width="3.54" height="6.54" transform="translate(-167.27 316.63) rotate(-64.35)"/><polygon class="b" points="52.69 175.79 53.02 175.83 52.47 181.41 48.25 180.99 48.8 175.41 52.69 175.79"/><rect class="b" x="228.42" y="226.57" width="1.45" height="2.29" transform="translate(-95.94 -118.73) rotate(-3.57)"/><polygon class="b" points="282.04 54.4 277.08 53.38 277.46 51.55 272.66 50.56 273.97 44.18 280.95 45.63 279.88 50.84 282.65 51.41 282.04 54.4"/><rect class="b" x="224.94" y="303.15" width="3.19" height="6.17" transform="translate(-216.47 294.95) rotate(-72.21)"/><polygon class="b" points="260.98 53.25 258.98 52.84 259.9 47.57 262.05 48.01 260.98 53.25"/><polygon class="b" points="146.99 171 141.3 169.25 142.34 165.89 148.71 167.85 148.16 169.6 147.49 169.39 146.99 171"/><rect class="b" x="234.96" y="267.68" width="3.05" height="7.09" transform="matrix(0.3, -0.96, 0.96, 0.3, -174.74, 283.53)"/><polygon class="b" points="224.33 159.96 219.56 157.86 229.31 135.69 236.21 138.73 231.73 148.9 229.61 147.97 224.33 159.96"/><rect class="b" x="221.95" y="234.27" width="2.92" height="6.11" transform="translate(-96.4 -119.23) rotate(-3.53)"/><rect class="b" x="193.76" y="205.89" width="3.68" height="5.16" transform="translate(-129.62 225.57) rotate(-78.6)"/><polygon class="b" points="91.64 60.86 89.23 60.43 90.67 53.69 92.92 54.09 91.64 60.86"/><rect class="b" x="204.16" y="311.32" width="3.31" height="8.02" transform="translate(-244.77 259.9) rotate(-68.82)"/><polygon class="b" points="96.59 61.74 94.69 61.4 95.86 55.24 97.62 55.56 96.59 61.74"/><rect class="b" x="99.55" y="190.12" width="4.66" height="3.76" transform="translate(-186.95 126.04) rotate(-80.14)"/><rect class="b" x="204.94" y="307.39" width="3.77" height="7.72" transform="translate(-239.89 260.18) rotate(-69.13)"/><polygon class="b" points="102.57 61.98 99.9 61.51 101.1 54.68 102.92 54.99 102.7 56.24 103.55 56.39 102.57 61.98"/><rect class="b" x="186.03" y="192.17" width="6.93" height="2.24" transform="translate(-117.01 211.37) rotate(-79.61)"/><polygon class="b" points="29.06 34.84 26.53 34.39 26.69 33.49 24.63 33.12 25.67 27.28 28.2 27.73 27.76 30.19 29.82 30.56 29.06 34.84"/><rect class="b" x="104.9" y="190.44" width="3.52" height="2.87" transform="translate(-183.2 129.67) rotate(-79.86)"/><rect class="b" x="357.58" y="314.95" width="3.66" height="5.85" transform="translate(-162.45 376.59) rotate(-65.1)"/><rect class="b" x="208.77" y="295" width="3.66" height="7.04" transform="translate(-223.93 261.73) rotate(-70.14)"/><polygon class="b" points="262.49 100.5 256.89 97.89 258.26 94.98 263.84 97.62 262.49 100.5"/><rect class="b" x="233.09" y="300.28" width="1.73" height="2.84" transform="translate(-203.73 307.53) rotate(-73.6)"/><rect class="b" x="102.76" y="178.66" width="4.69" height="2.32" transform="translate(-172.78 117.75) rotate(-79.73)"/><polygon class="b" points="65.74 36.17 64.34 35.92 64.61 34.4 62.89 34.09 62.65 35.4 59.72 34.87 60.95 27.99 67 29.08 65.74 36.17"/><rect class="b" x="335.16" y="227.4" width="2.76" height="2.34" transform="translate(-73.12 336.55) rotate(-70.58)"/><polygon class="b" points="115.86 153.82 111.59 152.31 120.48 132.5 124.33 133.1 123.96 136.22 118.88 147.9 120.98 148.83 120.06 151.55 116.38 149.88 115.93 150.97 116.53 151.29 115.86 153.82"/><polygon class="b" points="114.25 158.68 110.14 156.82 111.06 154.79 115.16 156.65 114.25 158.68"/><rect class="b" x="183.29" y="282.78" width="8.2" height="4.25" transform="translate(-231.18 207.61) rotate(-66.14)"/><rect class="b" x="283.44" y="319.68" width="6.51" height="2.61" transform="translate(-195.37 346.74) rotate(-69.94)"/><polygon class="b" points="125.22 150.52 122.56 149.56 128 131.65 130.63 131.54 132.43 132.19 131.73 135.31 129.98 134.86 125.22 150.52"/><polygon class="b" points="142.91 114.91 147.68 114.71 148.59 115.71 146.49 123.87 144.64 122.99 144.19 126.14 140.22 124.78 142.91 114.91"/><polygon class="b" points="40.5 181.73 40.87 178.66 43.3 178.96 42.92 182.13 40.49 181.83 40.5 181.73"/><rect class="b" x="90.37" y="300.6" width="3.14" height="6.63" transform="translate(-302.11 230.18) rotate(-84.01)"/><rect class="b" x="282.52" y="309.16" width="2.61" height="2.52" transform="translate(-187.19 337.44) rotate(-69.99)"/><polygon class="b" points="33.86 158.99 26.68 158.24 27.12 154.01 27.94 154.1 28.54 148.32 34.09 148.9 33.61 153.52 34.42 153.6 33.86 158.99"/><polygon class="b" points="34.03 134.61 30.07 134.2 30.34 131.55 27.91 131.3 28.8 122.67 32.21 123.03 32.22 122.92 35.43 123.26 35.08 126.76 36.62 126.92 36 132.94 34.22 132.75 34.03 134.61"/><polygon class="b" points="117.7 163.5 118.47 160.81 121.43 161.66 117.78 174.48 117.5 174.4 116.75 177.02 113.57 176.11 114.36 173.36 114.85 173.51 117.7 163.5"/><polygon class="b" points="109.98 187.35 106.95 186.43 108.83 180.03 111.85 180.94 109.98 187.35"/><polygon class="b" points="102.48 185.08 98.51 183.88 100.43 177.49 104.31 178.66 102.48 185.08"/><polygon class="b" points="97.96 162.21 91.63 159.2 88.85 157.94 90.47 154.32 99.64 158.46 97.96 162.21"/><rect class="b" x="88.16" y="304.84" width="5.64" height="7.89" transform="translate(-307.82 233.67) rotate(-84.02)"/><polygon class="b" points="33.67 144.77 28.5 144.24 29.32 136.3 35.39 136.93 35.02 140.44 39.28 140.88 38.97 143.85 33.82 143.32 33.67 144.77"/><polygon class="b" points="113.2 163.49 108.33 161.29 109.89 157.81 114.77 160.01 113.2 163.49"/><polygon class="b" points="106.19 186.2 103.24 185.31 105.06 178.89 108.08 179.81 106.19 186.2"/><polygon class="b" points="11.58 135.12 6.82 134.55 8.06 124 21.93 123.22 21.44 126.47 12.49 127.33 11.58 135.12"/><rect class="b" x="286.12" y="297.72" width="2.88" height="2.91" transform="translate(-174.09 333.7) rotate(-70.01)"/><polygon class="b" points="58.22 128.21 50.18 128.65 50.96 142.23 57.87 141.74 57.68 139.14 59.05 139 59.2 142.38 65.86 141.99 65.67 138.7 69.79 138.51 69.94 141.74 76.84 141.4 76.7 137.96 79.74 137.62 86.26 138.75 86.6 136.64 88.22 136.84 89.84 127.47 88.27 127.18 88.66 124.92 81.75 123.8 80.23 131.4 58.37 132.57 58.22 128.21"/><rect class="b" x="236.78" y="283.65" width="3.11" height="3.16" transform="translate(-191.64 283.02) rotate(-70.79)"/><polygon class="b" points="58.22 110.9 50.49 111.31 49.75 97.4 47.92 97.5 47.68 93.01 59.15 92.4 59.38 96.75 57.46 96.85 58.22 110.9"/><polygon class="b" points="139.46 137.91 134.7 136.54 135.16 134.93 134.44 134.72 135.03 132.68 140.52 134.26 139.46 137.91"/><polygon class="b" points="222.12 150.11 215.17 147.08 220.43 134.9 227.44 137.95 222.12 150.11"/><rect class="b" x="278.2" y="168.23" width="2.45" height="2.5" transform="translate(-14.73 284.8) rotate(-80.81)"/><rect class="b" x="292.61" y="296.6" width="5.74" height="4.43" transform="translate(-168.69 340.6) rotate(-69.97)"/><rect class="b" x="108.42" y="312.48" width="4.2" height="6.69" transform="translate(-296.97 260.82) rotate(-84.27)"/><rect class="b" x="240.14" y="274.13" width="2.99" height="2.95" transform="translate(-179.69 281.22) rotate(-71.05)"/><polygon class="b" points="64.59 181.81 58.94 181.13 59.41 176.38 65.07 176.95 64.59 181.81"/><rect class="b" x="286.89" y="313.28" width="4.35" height="2.78" transform="translate(-187.75 345.11) rotate(-69.98)"/><polygon class="b" points="280.93 132 274.85 129.25 272.42 134.62 268.36 143.58 269.8 144.24 274.44 146.33 280.93 132"/><polygon class="b" points="104.42 175.04 102.05 173.97 102.83 172.23 105.2 173.31 104.42 175.04"/><rect class="b" x="284.97" y="304.71" width="1.92" height="2.71" transform="translate(-181.75 336.46) rotate(-69.97)"/><rect class="b" x="279.8" y="311.94" width="3.67" height="3.89" transform="translate(-191.94 337.55) rotate(-69.97)"/><rect class="b" x="88.86" y="312.41" width="5.46" height="6.85" transform="translate(-314.3 240.45) rotate(-84)"/><rect class="b" x="120.77" y="279.52" width="4.45" height="2.37" transform="translate(-251.12 240.64) rotate(-84.08)"/><polygon class="b" points="109.65 171.15 104.93 169.01 107.13 164.12 111.84 166.26 109.65 171.15"/><polygon class="b" points="19.85 134.75 14.91 134.17 15.54 128.75 17.71 129 17.86 127.74 21.55 128.18 21.22 130.98 20.31 130.87 19.85 134.75"/><rect class="b" x="109.23" y="307.71" width="2.88" height="6.91" transform="translate(-292.17 256.89) rotate(-84.29)"/><rect class="b" x="194.76" y="193.76" width="6.66" height="2.46" transform="translate(-109.98 223.56) rotate(-80.2)"/><rect class="b" x="301.2" y="162.26" width="2.88" height="2.62" transform="translate(5.07 298.4) rotate(-79.63)"/><rect class="b" x="152.61" y="186.41" width="5.71" height="2.16" transform="translate(-138.37 174.63) rotate(-80.01)"/><polygon class="b" points="167.66 159.79 166.45 159.38 166.23 160 163.99 159.22 165.84 153.9 169.29 155.11 167.66 159.79"/><polygon class="b" points="122.44 66.22 119.49 65.7 120.66 59.65 123.5 60.15 122.44 66.22"/><polygon class="b" points="58.03 54.39 56 54.03 57.34 47.48 59.14 47.8 58.03 54.39"/><polygon class="b" points="71.12 56.65 68.94 56.26 70.09 49.77 72.26 50.15 71.12 56.65"/><polygon class="b" points="212.99 33.72 210.44 33.13 210.81 31.56 213.35 32.16 212.99 33.72"/><rect class="b" x="319.95" y="285.06" width="3.47" height="2.91" transform="translate(-155.68 324.63) rotate(-65.16)"/><rect class="b" x="334.79" y="164.02" width="4.82" height="2.65" transform="translate(14.37 320.26) rotate(-76.28)"/><polygon class="b" points="162.3 158.29 160.72 157.78 160.52 158.41 158.73 157.83 160.57 152.2 163.93 153.3 162.3 158.29"/><rect class="b" x="104.54" y="177.9" width="7.68" height="2.35" transform="translate(-169.32 120.44) rotate(-79.76)"/><polygon class="b" points="24.57 66.18 22.17 65.75 22.59 63.42 24.98 63.85 24.57 66.18"/><polygon class="b" points="116.69 42.66 106.86 40.65 107.55 36.26 118.23 38.26 116.69 42.66"/><rect class="b" x="197.56" y="194.28" width="6.67" height="2.51" transform="translate(-111.1 222.7) rotate(-79.18)"/><rect class="b" x="241.95" y="295.23" width="5.65" height="1.84" transform="translate(-192.15 310.36) rotate(-73.03)"/><polygon class="b" points="35.38 52.14 31.55 51.34 32.05 48.92 35.88 49.72 35.38 52.14"/><rect class="b" x="263.86" y="272.89" width="2.28" height="3.57" transform="matrix(0.31, -0.95, 0.95, 0.31, -160.66, 307.69)"/><rect class="b" x="256.81" y="291.44" width="5.37" height="3.63" transform="translate(-184.43 309.79) rotate(-71.01)"/><polygon class="b" points="172.69 160.85 169.13 159.67 170.68 155 175.6 156.64 174.42 160.19 173.06 159.74 172.69 160.85"/><polygon class="b" points="154.09 185.88 152.89 185.51 152.59 186.48 150.68 185.89 150.98 184.94 150.45 184.78 151.87 180.14 155.5 181.24 154.09 185.88"/><polygon class="b" points="221.01 44.63 218.19 44.18 218.94 39.53 221.75 39.99 221.01 44.63"/><polygon class="b" points="256.76 149.61 255.31 152.5 253.77 151.74 249.31 160.62 245.75 158.83 251.66 147.06 253.36 147.91 255.06 148.76 256.76 149.61"/><polygon class="b" points="200.83 56.31 198.54 55.94 199.33 51.6 201.51 51.95 200.83 56.31"/><rect class="b" x="311.9" y="293.11" width="3.43" height="6.5" transform="translate(-168 326.21) rotate(-65.62)"/><polygon class="b" points="214.93 60.59 213.65 60.38 214.74 53.88 217.07 54.26 216.29 59.93 215.07 59.73 214.93 60.59"/><polygon class="b" points="99.07 62.17 97.36 61.87 98.21 56.78 100.36 57.16 99.62 61.55 99.19 61.48 99.07 62.17"/><polygon class="b" points="243.74 119.35 243.73 120.53 238 120.26 237.96 123.23 239.25 123.25 239.21 126.66 233.44 126.59 233.48 123.93 234.31 123.94 234.37 120.03 235.6 120.05 235.65 116.39 236.94 116.41 236.96 115.34 241.39 115.4 241.34 119.13 243.74 119.35"/><polygon class="b" points="201.45 112.26 201.14 113.47 195.51 112.03 197.58 103.97 203.81 105.58 203.35 107.37 205.4 108.29 205.8 107.4 208.57 108.64 211.72 110.05 211.18 111.24 212.27 111.73 212.68 110.81 221.22 114.64 220.85 115.47 222.17 116.06 222.57 115.17 230.75 118.83 230.3 119.83 231.35 120.31 228.57 126.52 223.48 124.24 223.9 123.31 222.62 122.74 222.16 123.78 216.62 121.3 217.03 120.4 215.47 119.69 215.04 120.64 209.44 118.12 210.04 116.76 208.61 116.13 208.16 117.13 205.47 115.93 202.78 114.72 203.47 113.17 201.45 112.26"/><polygon class="b" points="175.54 177.26 170.75 175.92 172.55 169.46 174.82 170.09 174.6 170.88 176.2 171.33 175.38 174.26 176.31 174.52 175.54 177.26"/><polygon class="b" points="178.92 118.28 190.77 121.85 189.21 127.02 191.75 127.79 188.88 137.31 180.85 134.88 181.34 133.24 174.72 131.24 178.92 118.28"/><polygon class="b" points="242.23 189.14 240.52 188.3 239.96 189.47 234.74 186.92 236.73 182.85 243.65 186.24 242.23 189.14"/><rect class="b" x="324.82" y="304.32" width="3.93" height="6.34" transform="translate(-174.74 333.79) rotate(-64.11)"/><rect class="b" x="100.08" y="177.52" width="4.69" height="2.32" transform="translate(-173.87 114.17) rotate(-79.73)"/><rect class="b" x="314.94" y="286.11" width="3.24" height="5.23" transform="translate(-160.53 321.54) rotate(-65.2)"/><polygon class="b" points="276.01 124.52 273.97 123.55 275.24 120.86 277.28 121.83 276.01 124.52"/><rect class="b" x="293.19" y="173.2" width="4.89" height="2.93" transform="translate(-7.77 303.87) rotate(-80.47)"/><polygon class="b" points="225.33 182.06 223.53 181.22 223.07 182.21 217.67 179.71 220.5 173.59 227.71 176.92 225.33 182.06"/><rect class="b" x="305.3" y="300.9" width="6.49" height="7.74" transform="translate(-178.49 326.88) rotate(-65.67)"/><rect class="b" x="267.16" y="183.24" width="2.85" height="6.84" transform="matrix(0.16, -0.99, 0.99, 0.16, -40.73, 288.6)"/><polygon class="b" points="79.97 96.52 79.83 93.08 81.29 93.02 81.35 94.35 82.72 94.29 82.81 96.39 79.97 96.52"/><rect class="b" x="259.55" y="271.95" width="2.9" height="3.11" transform="translate(-160.1 307.63) rotate(-72.65)"/><polygon class="b" points="150.69 162.49 145.79 161.09 145.72 161.35 144.71 161.07 144.79 160.81 143.84 160.53 144.66 157.67 147.56 158.5 147.71 158 149.9 158.62 149.78 159.03 151.53 159.53 150.69 162.49"/><polygon class="b" points="94.47 61.27 92.06 60.8 93.38 54.11 94.99 54.43 94.64 56.19 95.45 56.34 94.47 61.27"/><polygon class="b" points="13.56 61.48 12.44 61.27 13.57 54.87 15.66 55.24 15.23 57.69 14.26 57.51 13.56 61.48"/><rect class="b" x="99.18" y="161.79" width="6.61" height="1.83" transform="translate(-158.09 101.14) rotate(-79.74)"/><polygon class="b" points="55.22 53.9 53.63 53.62 54.78 47.03 56.57 47.34 55.22 53.9"/><polygon class="b" points="47.83 52.59 45.71 52.21 47 45.65 49.3 46.06 47.83 52.59"/><polygon class="b" points="52.85 53.48 51.09 53.16 52.37 46.6 54 46.89 52.85 53.48"/><polygon class="b" points="50.54 33.54 51.6 33.73 51.01 37.02 47.34 36.36 47.93 33.07 50.54 33.54"/><rect class="b" x="151.48" y="178.03" width="2.21" height="4.4" transform="translate(-133.61 165.75) rotate(-80)"/><rect class="b" x="202.76" y="315.89" width="3.6" height="7.16" transform="translate(-250.52 255.84) rotate(-67.97)"/><rect class="b" x="204.71" y="223.86" width="7.82" height="15.53" transform="translate(-96.1 -120.13) rotate(-3.54)"/><polygon class="b" points="152.62 89.47 150.2 89.03 150.59 86.84 153.01 87.28 152.62 89.47"/><rect class="b" x="96.03" y="178.36" width="4.63" height="2.39" transform="translate(-177.99 111.12) rotate(-79.8)"/><polygon class="b" points="86.75 78.77 84.23 78.26 85.15 73.67 87.67 74.18 86.75 78.77"/><polygon class="b" points="153.74 130.27 154.71 127.16 157.69 128.08 156.72 131.19 153.74 130.27"/><polygon class="b" points="276.83 106.77 272.28 104.76 273.8 101.32 278.34 103.33 276.83 106.77"/><rect class="b" x="206.34" y="213.97" width="4.5" height="6.86" transform="translate(-116.35 262.43) rotate(-82.51)"/><rect class="b" x="160.8" y="188.44" width="4.21" height="2.77" transform="translate(-134.54 183.82) rotate(-79.99)"/><rect class="b" x="167.59" y="189.31" width="6.89" height="1.99" transform="translate(-130.27 189.04) rotate(-79.15)"/><polygon class="b" points="170.79 168.32 171.72 165.53 173.14 166.01 173.99 163.47 177.18 164.54 175.8 168.67 172.81 167.67 172.42 168.87 170.79 168.32"/><polygon class="b" points="260.94 103.81 255.38 101.12 256.56 98.6 262.15 101.22 260.94 103.81"/><rect class="b" x="180.63" y="226.42" width="3.17" height="1.76" transform="translate(-161.65 221.92) rotate(-77.36)"/><rect class="b" x="154.57" y="233.79" width="2.93" height="3.23" transform="translate(-98.56 -121.74) rotate(-4.08)"/><polygon class="b" points="257.7 67.07 255.05 66.52 256.1 61.39 257.13 61.61 257.31 60.73 258.93 61.06 257.7 67.07"/><polygon class="b" points="256.76 149.61 259.85 151.16 256.56 157.72 253.99 162.83 250.91 161.28 255.31 152.5 256.76 149.61"/><rect class="b" x="152.62" y="227.51" width="2.46" height="2.45" transform="translate(-91.95 -126.58) rotate(-2.48)"/><rect class="b" x="157.01" y="227.24" width="2.18" height="2.59" transform="matrix(1, -0.04, 0.04, 1, -92.08, -126.28)"/><rect class="b" x="249.53" y="295.62" width="2.89" height="1.79" transform="translate(-188.14 316.46) rotate(-73.01)"/><polygon class="b" points="174.72 131.24 174.32 132.57 173.03 132.18 172.67 133.36 169.64 132.44 170.03 131.16 167.99 130.54 171.25 119.74 167.79 118.7 169.42 113.29 173.46 112.87 179.96 114.83 178.92 118.28 174.72 131.24"/><polygon class="b" points="136.38 86.62 131.95 86.04 132.48 81.99 131.54 81.86 132.06 77.9 134.06 78.17 134.2 77.05 136.41 77.34 136.29 78.33 137.44 78.48 136.38 86.62"/><rect class="b" x="190.06" y="214.81" width="2.86" height="4.74" transform="translate(-141.45 228.55) rotate(-78.61)"/><rect class="b" x="339.89" y="311.28" width="4.07" height="6.75" transform="translate(-166.44 366.46) rotate(-66.12)"/><polygon class="b" points="258.58 139.8 255.29 138.17 259.42 129.86 259.78 130.04 260.27 129.06 262.34 130.09 261.81 131.15 262.67 131.57 258.58 139.8"/><rect class="b" x="304.43" y="228.37" width="2.62" height="5.79" transform="translate(-57.47 358.59) rotate(-79.97)"/><polygon class="b" points="154.55 163.25 156.43 157.64 158.47 158.32 157.5 161.21 158.39 161.51 157.47 164.23 154.55 163.25"/><rect class="b" x="161.66" y="202.22" width="3.87" height="7.19" transform="translate(-102.39 -115.64) rotate(-5.87)"/><polygon class="b" points="95.89 72.53 93.91 72.22 94.32 69.66 96.29 69.98 95.89 72.53"/><polygon class="b" points="46.85 102.14 47.19 107.72 46.28 107.77 46.56 112.48 42.09 112.75 41.97 110.74 37.98 110.98 36.3 112.57 35.54 111.76 33.13 114.02 32.23 113.05 31.18 114.03 29.38 112.12 30.69 110.89 29.54 109.67 31.98 107.39 31.22 106.58 34.44 103.55 34.81 101.68 33.07 101.34 33.82 97.5 38.54 98.42 39.23 94.88 42.51 95.52 42.21 97.06 46.85 102.14"/><polygon class="b" points="271.38 171.44 260.56 166.18 263.57 159.97 264.32 160.34 267.17 154.48 270.88 156.29 268.82 160.52 271.03 161.59 272.68 162.39 271.96 163.86 274.47 165.07 271.38 171.44"/><polygon class="b" points="109.75 109.09 116.69 95.5 119.76 97.07 118.9 98.76 120.42 99.54 122.23 99.47 122.64 108.52 109.75 109.09"/><rect class="b" x="345.41" y="269.02" width="9.84" height="4.98" transform="translate(-123.75 345.16) rotate(-65.63)"/><rect class="b" x="320.54" y="278.32" width="8.11" height="3.78" transform="translate(-150.55 318.47) rotate(-64.41)"/><polygon class="b" points="292.33 166.49 286.88 177.66 286.54 178.34 277.23 173.79 283.02 161.94 292.33 166.49"/><rect class="b" x="337.29" y="287.54" width="7.33" height="1.23" transform="translate(-152.38 328.66) rotate(-63.13)"/><polygon class="b" points="16.5 79.26 15.98 73.13 18.47 72.92 18.59 74.39 19.49 74.32 19.88 78.97 16.5 79.26"/><rect class="b" x="102.07" y="205.45" width="2.4" height="6.81" transform="translate(-103.29 -121.62) rotate(-5.94)"/><rect class="b" x="184.03" y="226.68" width="3.42" height="4.64" transform="translate(-167.8 210.96) rotate(-73.99)"/><rect class="b" x="178.27" y="209.07" width="4.71" height="5.86" transform="translate(-141.88 219.37) rotate(-79.94)"/><rect class="b" x="167.53" y="223.15" width="4.63" height="3.05" transform="translate(-139.16 258.23) rotate(-89.28)"/><polygon class="b" points="107.29 94.52 103.1 93.19 104.25 89.53 108.44 90.86 107.29 94.52"/><rect class="b" x="222.87" y="212.53" width="5.06" height="2.84" transform="translate(-103.24 269.84) rotate(-81.04)"/><polygon class="b" points="37.03 36.42 31.92 35.63 32.13 34.25 33.48 34.45 33.69 33.08 32.31 32.86 32.67 30.5 34.32 30.76 34.52 29.48 33.12 29.26 33.46 27.06 34.85 27.28 35.06 25.88 33.66 25.66 34 23.43 35.35 23.64 35.46 22.95 39.73 23.62 39.13 27.53 38.91 27.5 38.38 30.94 38.04 30.89 37.51 34.38 37.35 34.36 37.03 36.42"/><rect class="b" x="176.78" y="224.4" width="4.43" height="2.93" transform="translate(-156.29 230.28) rotate(-80.18)"/><rect class="b" x="266.65" y="201.64" width="4.39" height="5.15" transform="translate(-42.93 318.32) rotate(-84.38)"/><polygon class="b" points="94.03 80.15 88.11 79.06 88.98 74.31 94.9 75.4 94.03 80.15"/><polygon class="b" points="135.72 33.95 133.65 32.94 133.18 33.91 131.11 32.91 132.59 29.85 136.73 31.87 135.72 33.95"/><rect class="b" x="147.61" y="220.54" width="3.23" height="4.75" transform="translate(-92.52 -126.18) rotate(-2.69)"/><polygon class="b" points="208.72 94.79 205.61 94.14 207.04 87.26 207.47 87.35 207.78 85.86 209.43 86.21 209.14 87.6 210.18 87.81 208.72 94.79"/><polygon class="b" points="97.63 41.62 95.87 41.3 96.22 39.34 95.17 39.15 94.85 41.03 93.2 40.74 93.49 39.09 93.06 39.01 93.88 34.37 98.76 35.23 97.63 41.62"/><polygon class="b" points="104.5 82.12 101.61 81.57 102.5 76.82 105.39 77.37 104.5 82.12"/><polygon class="b" points="161.36 71.71 159.28 71.52 159.34 70.95 158.62 70.89 159.06 66.22 161.84 66.48 161.36 71.71"/><polygon class="b" points="157.66 87.36 155.22 87.1 155.64 83.3 154.76 83.21 154.59 84.74 151.43 84.4 152.05 78.76 157.94 79.41 157.82 80.47 160.62 80.77 160.23 84.36 158.01 84.11 157.66 87.36"/><polygon class="b" points="30.01 76.89 27.19 76.31 28.64 69.19 30.68 69.61 30.25 71.73 31.03 71.89 30.01 76.89"/><rect class="b" x="180.85" y="171.04" width="7.43" height="2.29" transform="translate(-101.02 188.24) rotate(-79.33)"/><polygon class="b" points="176.39 34.54 172.54 33.12 173.56 30.36 177.4 31.79 176.39 34.54"/><polygon class="b" points="193.97 34.38 190.01 33.66 190.09 33.19 189.09 33.01 189.65 29.94 194.61 30.84 193.97 34.38"/><polygon class="b" points="153.02 33.89 148.11 31.97 148.92 29.89 153.83 31.81 153.02 33.89"/><polygon class="b" points="192.07 107.31 189.44 106.63 190.51 102.49 191.05 102.63 191.66 100.25 193.74 100.79 192.07 107.31"/><rect class="b" x="269.6" y="218.75" width="5.12" height="3.25" transform="translate(-75.2 315.69) rotate(-79.78)"/><polygon class="b" points="171.12 55.17 166.86 53.87 167.74 50.94 172.01 52.24 171.12 55.17"/><polygon class="b" points="195.22 108.7 192.6 108.02 193.66 103.88 194.21 104.02 194.82 101.64 196.9 102.18 195.22 108.7"/><rect class="b" x="293.68" y="206.79" width="6.15" height="2.66" transform="translate(-56.19 315.67) rotate(-76.72)"/><polygon class="b" points="252.93 33.55 250.74 33.01 251.76 28.84 253.95 29.38 252.93 33.55"/><polygon class="b" points="196.24 75.84 192.4 75.35 193.17 69.31 194.58 69.49 194.81 67.74 197.23 68.05 196.24 75.84"/><rect class="b" x="226.27" y="197.61" width="4.43" height="5.66" transform="translate(-80.4 269.49) rotate(-83.03)"/><rect class="b" x="164.26" y="221.39" width="3.14" height="4.52" transform="translate(-89.35 -127.97) rotate(-1.85)"/><rect class="b" x="171.89" y="223.88" width="4.64" height="3.01" transform="translate(-138.57 259.24) rotate(-88.26)"/><rect class="b" x="270.48" y="204.03" width="5.28" height="2.42" transform="translate(-53.73 310.28) rotate(-81.19)"/><polygon class="b" points="87.54 39.82 85.78 39.51 86.09 37.79 84.91 37.58 84.63 39.16 81.81 38.66 82.12 36.89 80.53 36.61 80.21 38.42 77.44 37.92 77.74 36.26 76.54 36.04 76.27 37.6 72.89 37 73.12 35.72 70.18 35.2 69.98 36.33 66.91 35.78 67.86 30.38 88.23 34.02 88.35 33.33 90.55 33.72 89.63 38.97 87.75 38.63 87.54 39.82"/><polygon class="b" points="37.98 42.76 32.47 41.69 33.02 38.83 38.54 39.9 37.98 42.76"/><rect class="b" x="220.47" y="199.14" width="5.48" height="2.68" transform="translate(-89.82 258.7) rotate(-81.63)"/><polygon class="b" points="273.77 119.07 267.08 116.18 268.45 112.98 275.15 115.86 273.77 119.07"/><rect class="b" x="313.47" y="224.5" width="6.33" height="2.74" transform="translate(-29.63 377.99) rotate(-82.74)"/><rect class="b" x="249.83" y="175.61" width="4.27" height="11.42" transform="translate(-45.75 271.32) rotate(-81.78)"/><polygon class="b" points="30.78 175.73 26.88 175.4 27.14 172.36 32.82 172.84 32.68 174.41 30.9 174.26 30.78 175.73"/><rect class="b" x="273.32" y="219.28" width="5.45" height="3.66" transform="translate(-76.66 315.55) rotate(-78.81)"/><polygon class="b" points="17.64 141.32 11.98 140.25 12.3 138.57 13.16 138.73 13.41 137.4 18.21 138.3 17.64 141.32"/><rect class="b" x="151.96" y="220.58" width="2.97" height="4.58" transform="translate(-93.21 -125.45) rotate(-2.88)"/><rect class="b" x="156.1" y="220.15" width="2.61" height="4.61" transform="translate(-93.13 -125.3) rotate(-2.86)"/><polygon class="b" points="172.02 102.08 169.4 101.4 170.46 97.26 171 97.4 171.62 95.02 173.7 95.56 172.02 102.08"/><rect class="b" x="110.69" y="300.27" width="3.66" height="6.34" transform="translate(-282.04 254.69) rotate(-84.82)"/><polygon class="b" points="12.87 168.22 5.82 167.51 6.29 162.86 9.48 163.19 9.38 164.26 13.24 164.65 12.87 168.22"/><polygon class="b" points="251.33 97.56 247.97 97.27 248.47 91.43 251.83 91.72 251.33 97.56"/><polygon class="b" points="175.69 37.42 171.5 35.91 172.34 33.57 176.52 35.09 175.69 37.42"/><polygon class="b" points="241.36 31.37 238.43 30.75 238.46 30.62 235.59 30.01 236.45 25.91 239.38 26.54 239.36 26.66 242.23 27.27 241.36 31.37"/><polygon class="b" points="15.66 157.82 10.85 156.81 11.65 152.99 16.79 154.07 16.67 154.67 17.2 154.78 16.68 157.28 15.81 157.1 15.66 157.82"/><polygon class="b" points="112.61 125.55 111.92 117.2 127.8 115.88 128.48 124.22 123.93 124.6 123.65 121.19 117.54 121.69 117.83 125.11 112.61 125.55"/><polygon class="b" points="16.97 145.36 12.63 144.54 13.24 141.28 17.58 142.1 16.97 145.36"/><polygon class="b" points="188.68 105.98 186.06 105.29 187.12 101.15 187.67 101.3 188.28 98.92 190.36 99.46 188.68 105.98"/><polygon class="b" points="231.09 95.37 228.5 94.95 229.53 88.6 232.12 89.02 231.09 95.37"/><polygon class="b" points="16.53 149.53 11.8 148.43 12.53 145.3 17.25 146.41 16.53 149.53"/><rect class="b" x="306.56" y="222.81" width="4.9" height="2.97" transform="translate(-29.63 373.78) rotate(-83.79)"/><polygon class="b" points="39.66 180.54 36.98 180.3 37.33 176.56 36.09 176.45 36.53 171.73 41.69 172.21 41.27 176.72 40.01 176.61 39.66 180.54"/><polygon class="b" points="205.23 94.17 202.17 93.6 203.48 86.49 204.04 86.6 204.31 85.17 206.08 85.5 205.82 86.91 206.55 87.04 205.23 94.17"/><rect class="b" x="159.78" y="220.73" width="2.87" height="4.56" transform="translate(-95.15 -123.49) rotate(-3.4)"/><polygon class="b" points="17.45 153.81 15.68 153.43 15.61 153.79 11.81 152.97 12.11 151.55 11.35 151.39 11.74 149.56 17.13 150.71 17.01 151.28 17.95 151.48 17.45 153.81"/><rect class="b" x="95.16" y="208.43" width="3.06" height="4.15" transform="translate(-93.38 -127.94) rotate(-3.08)"/><polygon class="b" points="169.82 191 168.11 190.46 167.89 191.17 166.14 190.61 168.13 184.33 171.58 185.43 169.82 191"/><polygon class="b" points="221.96 188.97 220.1 188.12 219.9 188.57 214.36 186.07 216.71 180.88 224.1 184.22 221.96 188.97"/><rect class="b" x="270.66" y="303.53" width="4.02" height="6.28" transform="translate(-182.13 345.17) rotate(-73.13)"/><polygon class="b" points="144.4 179.2 138.71 177.35 139.82 173.93 140.59 174.18 140.72 173.75 146.29 175.56 145.56 177.78 144.93 177.57 144.4 179.2"/><rect class="b" x="343.85" y="303.2" width="3.84" height="6.67" transform="translate(-158.58 361.03) rotate(-65.56)"/><polygon class="b" points="277.17 177.38 283.55 180.17 282.53 182.49 281.22 181.92 280.65 183.23 275.58 181.01 277.17 177.38"/><rect class="b" x="206.38" y="303.21" width="3.67" height="7.11" transform="translate(-232.56 267.62) rotate(-70.57)"/><rect class="b" x="267.57" y="313.13" width="5.22" height="5.82" transform="translate(-198.9 334.95) rotate(-70.97)"/><polygon class="b" points="158.69 172.07 155.05 171 156.86 164.86 158.89 165.46 158.6 166.41 160.22 166.89 158.69 172.07"/><polygon class="b" points="247.02 180.37 245.32 179.56 244.96 180.32 243.89 179.82 243.63 180.34 239.06 178.17 240.65 174.83 248 178.32 247.02 180.37"/><polygon class="b" points="245.55 182.09 244.57 184.13 243.07 183.41 242.4 184.79 237.02 182.2 238.67 178.78 245.55 182.09"/><polygon class="b" points="169.13 175.06 165.59 173.97 167.51 167.77 169.47 168.38 169.15 169.43 170.72 169.92 169.13 175.06"/><polygon class="b" points="159.58 187.41 158.03 186.95 157.69 188.08 156.08 187.6 157.81 181.81 160.97 182.76 159.58 187.41"/><polygon class="b" points="164.55 189.44 161.03 188.41 162.36 183.88 162.69 183.98 163.01 182.87 166.21 183.81 164.55 189.44"/><polygon class="b" points="163.75 173.52 159.98 172.39 161.76 166.46 163.89 167.1 163.69 167.75 165.33 168.25 163.75 173.52"/><polygon class="b" points="255.64 168.55 254.48 170.83 244.16 165.58 245.15 163.62 246.24 164.17 246.39 163.85 255.64 168.55"/><rect class="b" x="327.19" y="299.99" width="3.19" height="6.54" transform="translate(-168.27 337.06) rotate(-64.64)"/><polygon class="b" points="194.11 171.87 188.18 170 189.43 166.02 196.44 168.23 195.51 171.2 194.42 170.86 194.11 171.87"/><rect class="b" x="235.24" y="264.16" width="3.78" height="5.83" transform="translate(-170.26 281.35) rotate(-72.83)"/><polygon class="b" points="138.3 141.52 132.37 139.66 133.22 136.95 134.86 137.46 135.02 136.94 137.23 137.64 137.14 137.92 139.7 138.72 139.15 140.48 138.67 140.33 138.3 141.52"/><rect class="b" x="229" y="286.14" width="3.72" height="6.19" transform="translate(-194.96 293.22) rotate(-73.2)"/><polygon class="b" points="199.26 161.49 191.76 159.11 192.99 155.24 199.63 157.35 199.47 157.86 200.33 158.13 199.26 161.49"/><polygon class="b" points="154.58 145.79 149.7 144.27 149.79 143.99 148.75 143.66 150.09 139.36 150.94 139.63 151.03 139.36 156.1 140.94 154.58 145.79"/><rect class="b" x="207.64" y="298.7" width="3.21" height="7.62" transform="translate(-228.43 263.61) rotate(-70.22)"/><rect class="b" x="231.62" y="277.44" width="3.38" height="5.81" transform="translate(-185.53 287.28) rotate(-72.87)"/><polygon class="b" points="153.88 124.48 155.85 117.93 159.89 119.15 157.69 126.47 155.03 125.67 155.26 124.89 153.88 124.48"/><polygon class="b" points="161.46 126.65 158.68 125.81 159.29 123.78 158.94 123.67 159.47 121.92 159.88 122.05 160.84 118.88 163.56 119.7 163.37 120.34 161.46 126.65"/><rect class="b" x="221.18" y="311.3" width="3.78" height="6.32" transform="translate(-225.39 301.48) rotate(-72.85)"/><rect class="b" x="210.95" y="285.81" width="3.73" height="7.37" transform="translate(-214.99 254.35) rotate(-69.56)"/><rect class="b" x="230.25" y="281.68" width="3.8" height="6.31" transform="translate(-192.1 285.69) rotate(-72.26)"/><polygon class="b" points="164.52 127.58 161.46 126.65 163.37 120.34 163.56 120.4 163.85 119.43 165.35 119.88 165.16 120.52 166.47 120.92 165.77 123.23 166.21 123.37 165.52 125.66 165.14 125.55 164.52 127.58"/><rect class="b" x="219.62" y="315.68" width="3.86" height="6.12" transform="translate(-230.91 301.89) rotate(-72.68)"/><rect class="b" x="212.44" y="281.09" width="3.23" height="8.68" transform="translate(-208.47 259.11) rotate(-70.6)"/><rect class="b" x="341.74" y="306.44" width="1.94" height="8.73" transform="translate(-165.48 357.91) rotate(-65.17)"/><polygon class="b" points="165.9 144.04 162.33 142.84 163.09 140.58 161.93 140.19 163.07 136.8 167.8 138.39 165.9 144.04"/><rect class="b" x="255.03" y="275.54" width="5.5" height="3.96" transform="matrix(0.27, -0.96, 0.96, 0.27, -161.34, 317.16)"/><polygon class="b" points="171.66 146.46 167.88 145.26 169.57 139.98 169.93 140.1 170.29 138.98 172.38 139.65 172.01 140.83 173.32 141.25 171.66 146.46"/><rect class="b" x="269.97" y="307.7" width="3.84" height="6.57" transform="translate(-191.36 337.05) rotate(-71.55)"/><rect class="b" x="226.8" y="295.04" width="3.76" height="4.97" transform="translate(-205.4 294.47) rotate(-72.78)"/><rect class="b" x="260.7" y="277.46" width="6.23" height="4.01" transform="translate(-164.32 313.46) rotate(-72.48)"/><rect class="b" x="336.43" y="315.49" width="4.44" height="5.91" transform="translate(-176.56 354.14) rotate(-64.58)"/><polygon class="b" points="190.1 163.77 191.38 159.81 197.83 161.91 197.09 164.17 196.01 163.81 195.46 165.51 190.1 163.77"/><rect class="b" x="209.82" y="290.2" width="3.87" height="7.48" transform="translate(-216.76 266.86) rotate(-71.3)"/><polygon class="b" points="214.65 157.26 216.63 152.5 217.03 152.67 217.58 151.35 220.19 152.44 219.68 153.68 220.21 153.9 218.19 158.74 214.65 157.26"/><polygon class="b" points="253.06 81.47 250.89 81.21 251.54 75.63 255 76.04 254.72 78.45 254.32 78.41 254.07 80.53 253.19 80.42 253.06 81.47"/><polygon class="b" points="248.45 80.74 245.75 80.36 246.33 76.16 250.29 76.71 249.93 79.39 248.66 79.21 248.45 80.74"/><rect class="b" x="225.84" y="213.06" width="5.69" height="2.93" transform="translate(-96.82 278.88) rotate(-82.28)"/><rect class="b" x="280.74" y="221.5" width="6.01" height="2.15" transform="translate(-70.4 326) rotate(-79.17)"/><polygon class="b" points="220.41 92.33 217.32 91.89 217.94 87.42 221.03 87.86 220.41 92.33"/><polygon class="b" points="182.55 103.41 179.92 102.72 180.99 98.58 181.53 98.72 182.14 96.34 184.22 96.88 182.55 103.41"/><polygon class="b" points="185.55 104.74 182.92 104.06 183.99 99.91 184.53 100.05 185.14 97.67 187.22 98.22 185.55 104.74"/><polygon class="b" points="158.02 71.04 155.57 70.76 156.33 64.08 158.78 64.36 158.02 71.04"/><polygon class="b" points="233.08 79.89 230.07 79.32 230.91 74.86 235.37 75.7 235.08 77.23 233.63 76.96 233.08 79.89"/><polygon class="b" points="223.45 78.03 220.52 77.61 220.98 74.39 221.28 74.44 221.53 72.66 224.16 73.04 223.45 78.03"/><polygon class="b" points="278 67.83 271.55 64.9 272.88 61.95 276.16 63.44 276.4 62.92 279.57 64.36 278 67.83"/><polygon class="b" points="212.07 92.48 209.61 91.97 210.43 87.97 212.88 88.48 212.07 92.48"/><polygon class="b" points="275.29 110.4 270.76 108.42 272.15 105.2 276.68 107.17 275.29 110.4"/><polygon class="b" points="264.18 96.9 259.04 94.51 260.14 92.13 263.45 92.47 264.95 93.14 264.58 94.06 265.33 94.44 264.18 96.9"/><rect class="b" x="325.56" y="226.02" width="5.65" height="2.82" transform="translate(-14.66 396.52) rotate(-83.94)"/><polygon class="b" points="240.57 98.74 238.35 98.53 238.58 96.04 238.27 96.02 238.52 93.39 238.25 93.36 238.53 90.26 241.33 90.52 240.57 98.74"/><polygon class="b" points="259.24 107.42 253.66 104.77 255.04 101.83 260.6 104.52 259.24 107.42"/><rect class="b" x="277.49" y="219.97" width="5.5" height="3.6" transform="translate(-74.09 319.99) rotate(-78.76)"/><rect class="b" x="233.5" y="200.07" width="4.94" height="2.61" transform="translate(-72.1 280.58) rotate(-83.75)"/><polygon class="b" points="175.79 101.62 173.17 100.95 174.23 96.8 174.78 96.94 175.39 94.56 177.47 95.1 175.79 101.62"/><polygon class="b" points="164.43 105.42 165.45 101.47 166.56 101.76 167.76 97.08 168.35 97.23 168.97 94.81 170.67 95.25 168.1 105.23 164.43 105.42"/><polygon class="b" points="257.2 111.77 251.63 109.13 252.39 107.51 251.56 107.12 252.32 105.51 253.13 105.89 253.32 105.48 258.9 108.13 257.2 111.77"/><rect class="b" x="322.4" y="225.75" width="5.76" height="2.6" transform="translate(-15.32 394.59) rotate(-84.27)"/><rect class="b" x="302.53" y="222.45" width="4.82" height="3.11" transform="translate(-51.11 351.67) rotate(-79.94)"/><polygon class="b" points="167.36 72.38 165.34 72.18 165.94 66.13 169.33 66.47 169.05 69.27 167.69 69.14 167.36 72.38"/><polygon class="b" points="264.86 72.64 261.31 70.96 264.85 63.46 268.39 65.14 264.86 72.64"/><polygon class="b" points="268.9 80.76 265.72 79.25 266.42 77.76 264.92 77.06 265.84 75.1 266.99 75.65 270.52 77.32 268.9 80.76"/><polygon class="b" points="214.76 143.67 209.16 141.23 213.37 131.51 218.97 133.95 214.76 143.67"/><polygon class="b" points="12.18 100.53 13.56 87.1 28.63 85.97 25.84 99.51 12.18 100.53"/><polygon class="b" points="51.15 72.25 43.85 70.94 43.94 70.42 41.02 69.9 42.49 61.62 45.42 62.15 45.49 61.72 59.48 64.23 59.15 66.08 62.52 66.68 61.54 72.16 58.17 71.55 57.84 73.45 51.15 72.25"/><rect class="b" x="179.8" y="234.61" width="6.52" height="3.29" transform="translate(-90.74 -126.58) rotate(-2.1)"/><polygon class="b" points="59.41 90.28 59.04 86.23 53.43 86.74 52.98 81.76 62.34 80.91 62.74 85.39 62.15 85.44 62.56 90 59.41 90.28"/><polygon class="b" points="110.61 144.69 107.98 143.4 108.62 142.08 101.75 138.71 103.12 135.88 104.05 136.34 105.06 134.25 106 134.71 106.55 133.57 111.25 135.86 112.62 133.03 115.81 132.92 110.61 144.69"/><polygon class="b" points="208.74 141.09 203.13 138.64 207.34 128.92 212.95 131.37 208.74 141.09"/><polygon class="b" points="94.29 163.84 90.46 161.99 91.58 159.64 96.62 162.09 95.5 164.43 94.29 163.84"/><rect class="b" x="221.79" y="228.08" width="2.17" height="3.92" transform="translate(-95.75 -119.5) rotate(-3.48)"/><polygon class="b" points="76.92 111.89 76.64 107.97 77.41 107.91 77.19 104.84 81.09 104.55 81.32 107.63 82.79 107.52 82.56 104.44 86.44 104.16 86.66 107.24 87.67 107.16 87.69 107.48 88.15 107.45 88.06 106.23 87.49 106.27 87.23 102.64 92.01 102.3 92.19 104.66 91.14 104.73 91.56 110.63 87.95 110.9 87.96 111.08 76.92 111.89"/><polygon class="b" points="279.39 102.78 274.64 100.73 276.18 97.12 280.93 99.17 279.39 102.78"/><polygon class="b" points="142.08 96.29 141.76 91.67 145.6 91.87 145.89 96.03 142.08 96.29"/><polygon class="b" points="216.49 92 213.33 91.47 213.97 87.63 217.13 88.16 216.49 92"/><polygon class="b" points="196.78 56.77 194.15 56.34 195.29 49.22 198.38 49.71 198.11 51.41 198.55 51.46 197.88 55.18 197.06 55.06 196.78 56.77"/><rect class="b" x="312.57" y="175.97" width="5.55" height="2.96" transform="translate(2.62 322.93) rotate(-79.8)"/><rect class="b" x="208.28" y="209.28" width="3.59" height="4.96" transform="matrix(0.13, -0.99, 0.99, 0.13, -108.87, 259.78)"/><polygon class="b" points="177.46 31.35 173.83 30.05 174.2 29 173.23 28.64 173.86 26.89 178.46 28.55 177.46 31.35"/><rect class="b" x="309.28" y="175.39" width="5.55" height="2.95" transform="translate(0.94 319.58) rotate(-79.89)"/><polygon class="b" points="273.53 114.61 268.8 112.43 270.35 109.05 275.07 111.23 273.53 114.61"/><polygon class="b" points="155.72 32.09 149.32 29.26 150.32 26.95 156.73 29.78 155.72 32.09"/><polygon class="b" points="192.8 38.43 188.84 37.79 188.96 37.07 187.73 36.87 188.11 34.48 193.3 35.32 192.8 38.43"/><polygon class="b" points="229.45 61.34 226.97 60.98 227.7 55.99 230.18 56.35 229.45 61.34"/><rect class="b" x="236.95" y="225.34" width="3.12" height="5.85" transform="translate(-100.99 301.68) rotate(-82.54)"/><rect class="b" x="285.67" y="172.84" width="6.02" height="2.61" transform="translate(-17.76 292.46) rotate(-79.41)"/><polygon class="b" points="270.02 122.07 265.06 119.96 266.45 116.67 271.41 118.78 270.02 122.07"/><polygon class="b" points="168.94 61.88 163.32 60.19 164.33 56.8 169.96 58.49 168.94 61.88"/><polygon class="b" points="135.12 67.71 132.2 67.34 132.71 63.33 134.24 63.52 134.49 61.59 135.86 61.77 135.12 67.71"/><polygon class="b" points="142.73 53.81 138.29 51.65 139.35 49.46 143.79 51.63 142.73 53.81"/><rect class="b" x="178.31" y="276.59" width="4.86" height="5.18" transform="translate(-230.59 193.58) rotate(-65.35)"/><polygon class="b" points="205.61 147.88 206.14 148.1 206.73 146.69 208.19 147.29 205.6 153.49 203.61 152.66 205.61 147.88"/><polygon class="b" points="202.08 146.41 202.5 146.59 203.11 145.12 205.82 146.25 205.21 147.71 205.61 147.88 203.61 152.66 200.09 151.19 202.08 146.41"/><polygon class="b" points="208.19 147.29 209.45 147.81 208.88 149.18 209.31 149.36 207.3 154.2 205.6 153.49 208.19 147.29"/><polygon class="b" points="212.91 151.11 213.38 151.3 214 149.81 215.34 150.37 212.79 156.48 210.98 155.73 212.91 151.11"/><polygon class="b" points="207.3 154.2 209.31 149.36 209.79 149.55 210.34 148.23 212.98 149.34 212.35 150.87 212.91 151.11 210.98 155.73 207.3 154.2"/><polygon class="b" points="246.39 163.85 246.54 163.57 245.57 163.07 246.51 161.22 256.73 166.41 255.64 168.55 246.39 163.85"/><polygon class="b" points="197.23 142.57 194.59 148.9 192.07 147.85 194.08 143.02 195.03 143.42 195.66 141.92 197.23 142.57"/><rect class="b" x="342.55" y="304.68" width="1.93" height="8.73" transform="translate(-163.41 357.63) rotate(-65.17)"/><polygon class="b" points="196.47 149.68 198.48 144.86 198.77 144.98 199.38 143.52 202.26 144.72 201.64 146.23 202.08 146.41 200.09 151.19 196.47 149.68"/><polygon class="b" points="194.59 148.9 197.23 142.57 198.55 143.13 197.92 144.63 198.48 144.86 196.47 149.68 194.59 148.9"/><polygon class="b" points="212.79 156.48 215.34 150.37 216.62 150.9 216.06 152.26 216.63 152.5 214.65 157.26 212.79 156.48"/><polygon class="b" points="84.67 178.87 82.81 178.02 85.75 171.49 87.59 172.35 84.67 178.87"/><polygon class="b" points="90.39 181.48 88.37 180.57 92.02 172.48 93.96 173.35 90.39 181.48"/><polygon class="b" points="81.89 177.76 79.88 176.85 82.49 171.03 84.55 171.97 81.89 177.76"/><polygon class="b" points="99.96 157.74 91.54 153.92 92.62 151.51 101.73 155.92 101.03 157.49 100.24 157.13 99.96 157.74"/><rect class="b" x="166.4" y="308.32" width="7.97" height="2.44" transform="translate(-264.05 204.15) rotate(-65.72)"/><polygon class="b" points="113.53 188.42 110.74 187.58 112.6 181.17 115.44 182.03 113.53 188.42"/><polygon class="b" points="212.87 60.26 209.62 59.73 210.67 53.22 213.96 53.75 212.87 60.26"/><polygon class="b" points="94.08 180.67 92.02 179.73 94.68 173.68 96.78 174.63 94.08 180.67"/><polygon class="b" points="98.22 153.34 93.56 151.08 94.4 149.24 99.11 151.37 98.22 153.34"/><rect class="b" x="181.16" y="273.03" width="2.38" height="5.26" transform="translate(-225.69 197.7) rotate(-66.18)"/><polygon class="b" points="164.7 72.13 162.9 71.92 162.99 71.15 161.8 71.02 162.28 66.8 165.26 67.13 164.7 72.13"/><rect class="b" x="258.28" y="199.95" width="5.64" height="4.86" transform="translate(-56.31 300.92) rotate(-82.38)"/><rect class="b" x="229.08" y="213.35" width="5.74" height="2.88" transform="translate(-88.63 288.99) rotate(-83.86)"/><polygon class="b" points="240.7 48 237.87 47.54 238.67 42.56 239.63 42.71 239.85 41.31 241.72 41.62 240.7 48"/><rect class="b" x="316.27" y="176.94" width="4.62" height="2.96" transform="translate(9.01 330.7) rotate(-80.74)"/><polygon class="b" points="155.98 51.51 154.4 50.97 155.25 48.48 154.22 48.12 156.05 42.78 158.67 43.68 155.98 51.51"/><rect class="b" x="351.71" y="204.67" width="3" height="5.99" transform="translate(-64.79 309.02) rotate(-65.42)"/><rect class="b" x="217.54" y="198.44" width="4.2" height="2.37" transform="translate(-85.42 262.22) rotate(-83.6)"/><polygon class="b" points="151.96 70.2 149.37 69.89 150 64.63 152.58 64.94 151.96 70.2"/><polygon class="b" points="226.82 78.67 223.8 78.12 224.46 74.52 227.48 75.08 226.82 78.67"/><polygon class="b" points="219.39 77.99 216.41 77.47 217.39 71.75 220.37 72.26 219.39 77.99"/><rect class="b" x="280.22" y="205.38" width="5.22" height="3.76" transform="translate(-47.6 321.47) rotate(-81.17)"/><polygon class="b" points="153.81 49.4 151.86 48.86 153.57 42.66 155.52 43.19 153.81 49.4"/><rect class="b" x="227.01" y="177.03" width="4.22" height="2.05" transform="matrix(0.16, -0.99, 0.99, 0.16, -65.37, 242.44)"/><rect class="b" x="345.79" y="214.25" width="4.32" height="4.68" transform="translate(-72.42 314.72) rotate(-66.3)"/><polygon class="b" points="140.94 56.88 137.37 55.08 138.61 52.59 142.19 54.4 140.94 56.88"/><polygon class="b" points="219.42 60.43 217.07 60.05 217.85 54.38 220.19 54.76 219.42 60.43"/><polygon class="b" points="170.38 58.3 165.99 57.05 166.64 54.73 171.04 55.98 170.38 58.3"/><polygon class="b" points="211.11 44.06 208.23 43.46 209.12 37.91 212 38.5 211.11 44.06"/><polygon class="b" points="259.36 37.41 256.88 36.9 258.3 29.98 260.77 30.49 259.36 37.41"/><polygon class="b" points="247.4 32.33 245.18 31.85 246.1 27.58 248.32 28.06 247.4 32.33"/><rect class="b" x="306.52" y="175.46" width="4.62" height="2.62" transform="translate(-2.36 315.72) rotate(-79.73)"/><polygon class="b" points="206.35 57.41 203.62 57 204.3 52.62 206.89 53.04 206.35 57.41"/></svg>